<svg width="600" height="600" xmlns="http://www.w3.org/2000/svg">

 <g>
  <title>background</title>
  <rect fill="none" id="canvas_background" height="602" width="602" y="-1" x="-1"/>
 </g>
 <g>
  <title>Layer 1</title>
  <path stroke="null" id="svg_1" fill="#0078CF" d="m556,300c0,23.155 -3.072,45.599 -8.84,66.936c-13.479,49.894 -41.66,93.748 -79.621,126.631c-44.899,38.902 -103.466,62.433 -167.539,62.433c-141.385,0 -256,-114.615 -256,-256s114.615,-256 256,-256s256,114.615 256,256z"/>
  <g stroke="null" id="svg_2">
   <path stroke="null" id="svg_3" fill="#F2F2F2" d="m547.00001,367.07601c-13.479,49.894 -41.66,93.748 -79.621,126.631c-3.709,0.199 -7.586,0.293 -11.609,0.293c-53.154,0 -82.693,-33.217 -97.374,-58.138l48.191,-28.954c0,0 16.394,34.837 47.125,34.837c30.741,0 43.039,-10.25 43.039,-33.813c0,-28.693 -99.391,-38.933 -114.761,-88.116c-15.37,-49.183 5.12,-118.868 76.852,-113.737c44.826,3.197 70.04,25.213 82.651,41.273l-47.815,34.544c-10.25,-29.706 -52.255,-29.706 -60.458,-5.12c-8.192,24.597 19.466,38.933 62.506,53.279c22.111,7.367 39.895,20.961 51.274,37.021z"/>
   <polygon stroke="null" id="svg_4" fill="#F2F2F2" points="344.78302001953125,213.926025390625 126.94601440429688,213.926025390625 126.94601440429688,265.3420104980469 206.7750244140625,265.3420104980469 206.7750244140625,488.59002685546875 264.95501708984375,488.59002685546875 264.95501708984375,265.3420104980469 344.78302001953125,265.3420104980469 "/>
  </g>
  <g id="svg_5"/>
  <g id="svg_6"/>
  <g id="svg_7"/>
  <g id="svg_8"/>
  <g id="svg_9"/>
  <g id="svg_10"/>
  <g id="svg_11"/>
  <g id="svg_12"/>
  <g id="svg_13"/>
  <g id="svg_14"/>
  <g id="svg_15"/>
  <g id="svg_16"/>
  <g id="svg_17"/>
  <g id="svg_18"/>
  <g id="svg_19"/>
 </g>
</svg>